<svg width="115" height="116" viewBox="0 0 115 116" fill="none" xmlns="http://www.w3.org/2000/svg">
<rect x="0.135254" y="0.873138" width="114.865" height="114.865" fill="#0083FC"/>
<path d="M27.1621 67.5849V46.1434H32.2867V55.0023L42.3295 46.1434H48.3139L40.9538 52.8702L49.4833 67.5849H43.8428L37.6176 56.8041H36.7234L32.2867 60.678V67.5849H27.1621Z" fill="#E6E6E6"/>
<path d="M54.1583 71.8191H50.1343L60.521 44.7921H64.4418L54.1583 71.8191Z" fill="#E6E6E6"/>
<path d="M82.642 60.738H87.9729C87.6061 62.9202 86.5055 64.672 84.6712 65.9933C82.8598 67.3146 80.544 67.9753 77.7238 67.9753C74.0322 67.9753 71.1432 66.9643 69.0567 64.9422C66.9931 62.9002 65.9613 60.2075 65.9613 56.8642C65.9613 53.5208 67.0046 50.8381 69.0911 48.8161C71.1776 46.7741 74.0552 45.753 77.7238 45.753C80.4064 45.753 82.642 46.3637 84.4304 47.5849C86.2189 48.7861 87.3195 50.3877 87.7322 52.3897H82.3668C81.7936 50.6279 80.2459 49.747 77.7238 49.747C75.6143 49.747 73.9978 50.4177 72.8743 51.7591C71.7738 53.0804 71.2235 54.7821 71.2235 56.8642C71.2235 58.9462 71.7738 60.6579 72.8743 61.9993C73.9978 63.3206 75.6143 63.9813 77.7238 63.9813C79.0307 63.9813 80.1084 63.701 80.9567 63.1404C81.828 62.5599 82.3898 61.7591 82.642 60.738Z" fill="#E6E6E6"/>
</svg>
